# xmcd
#
# Track frame offsets:
#  150
#  10878
#  20410
#  31516
#  41770
#  52101
#  66407
#  76497
#  88870
#  99535
#  109819
#  121313
#
# Disc length: 1772 seconds
#
# Revision: 0
# Processed by: cddbd v1.5.2PL0 Copyright (c) Steve Scherf et al.
# Submitted via: Collectorz.com_Music_Collector 6.9
#
DISCID=9906ea0c
DTITLE=Jake Hooker - Faded Lights
DYEAR=2006
DGENRE=Country
TTITLE0=Faded Lights And Lonesome People
TTITLE1=As Long As I Live
TTITLE2=Drinkin' My Baby Right Out Of Mind
TTITLE3=Put It Off Until Tomorrow (Duet with Amber Digby)
TTITLE4=I'm Barely HAnging On To Me
TTITLE5=Does She Know
TTITLE6=Green Snakes On The Ceiling
TTITLE7=My Imagination
TTITLE8=Loving Here And Lining There And Lying In Between
TTITLE9=A Moment Isn't Very Long
TTITLE10=She Knows What Love Can Do
TTITLE11=Tom's Place
EXTD=
EXTT0=
EXTT1=
EXTT2=
EXTT3=
EXTT4=
EXTT5=
EXTT6=
EXTT7=
EXTT8=
EXTT9=
EXTT10=
EXTT11=
PLAYORDER=
